<svg xmlns="http://www.w3.org/2000/svg" width="116" height="96" viewBox="0 0 116 96">
  <g fill="#1297FF" fill-rule="evenodd">
    <path fill-opacity=".25" d="M115.2,38.4 C115.2,38.4397645 115.19996,38.4795196 115.199879,38.5192652 L115.2,96 L57.719,95.999 L57.6,96 C26.1065144,96 0.516370289,70.7247907 0.00771675433,39.3525213 L0,38.4 L0,38.4 L19.2,38.4 L19.2,38.4 C19.2,59.6077344 36.3922656,76.8 57.6,76.8 L57.6,38.4 Z"/>
    <path d="M56.9649858,76.7948555 C36.0501395,76.4557531 19.2,59.395657 19.2,38.4 C19.2,17.1922656 36.3922656,0 57.6,0 L57.6,0 L57.6,19.2 L57.6,19.2 C46.9961328,19.2 38.4,27.7961328 38.4,38.4 C38.4,49.0038672 46.9961328,57.6 57.6,57.6 L57.6,76.8 Z"/>
    <path fill-opacity=".5" d="M57.2586444,57.5970265 C46.8122636,57.4149048 38.4,48.8898471 38.4,38.4 C38.4,27.7961328 46.9961328,19.2 57.6,19.2 L57.6,19.2 L57.6,28.8 L57.6,28.8 C52.2980664,28.8 48,33.0980664 48,38.4 C48,43.7019336 52.2980664,48 57.6,48 L57.6,57.6 Z"/>
  </g>
</svg>
