<svg xmlns="http://www.w3.org/2000/svg" width="470" height="370" viewBox="0 0 470 370">
  <g fill="none" fill-rule="evenodd">
    <path fill="#FFF" stroke="#000" stroke-opacity=".15" stroke-width=".5" d="M460,0.25 L10,0.25 C7.30761184,0.25 4.87011184,1.34130592 3.10570888,3.10570888 C1.34130592,4.87011184 0.25,7.30761184 0.25,10 L0.25,360 C0.25,362.692388 1.34130592,365.129888 3.10570888,366.894291 C4.87011184,368.658694 7.30761184,369.75 10,369.75 L460,369.75 C462.692388,369.75 465.129888,368.658694 466.894291,366.894291 C468.658694,365.129888 469.75,362.692388 469.75,360 L469.75,10 C469.75,7.30761184 468.658694,4.87011184 466.894291,3.10570888 C465.129888,1.34130592 462.692388,0.25 460,0.25 Z"/>
    <path fill="#E9EDF4" fill-opacity=".5" d="M428,272 C433.522847,272 438,276.477153 438,282 L438,328 C438,333.522847 433.522847,338 428,338 L314,338 C308.477153,338 304,333.522847 304,328 L304,282 C304,276.477153 308.477153,272 314,272 L428,272 Z M278,272 C283.522847,272 288,276.477153 288,282 L288,328 C288,333.522847 283.522847,338 278,338 L42,338 C36.4771525,338 32,333.522847 32,328 L32,282 C32,276.477153 36.4771525,272 42,272 L278,272 Z M278,64 C283.522847,64 288,68.4771525 288,74 L288,246 C288,251.522847 283.522847,256 278,256 L42,256 C36.4771525,256 32,251.522847 32,246 L32,74 C32,68.4771525 36.4771525,64 42,64 L278,64 Z M428,168 C433.522847,168 438,172.477153 438,178 L438,246 C438,251.522847 433.522847,256 428,256 L314,256 C308.477153,256 304,251.522847 304,246 L304,178 C304,172.477153 308.477153,168 314,168 L428,168 Z M428,64 C433.522847,64 438,68.4771525 438,74 L438,142 C438,147.522847 433.522847,152 428,152 L314,152 C308.477153,152 304,147.522847 304,142 L304,74 C304,68.4771525 308.477153,64 314,64 L428,64 Z"/>
    <path fill="#BBC3CF" fill-opacity=".5" d="M20,16 C22.209139,16 24,17.790861 24,20 C24,22.209139 22.209139,24 20,24 C17.790861,24 16,22.209139 16,20 C16,17.790861 17.790861,16 20,16 Z M32,16 C34.209139,16 36,17.790861 36,20 C36,22.209139 34.209139,24 32,24 C29.790861,24 28,22.209139 28,20 C28,17.790861 29.790861,16 32,16 Z M44,16 C46.209139,16 48,17.790861 48,20 C48,22.209139 46.209139,24 44,24 C41.790861,24 40,22.209139 40,20 C40,17.790861 41.790861,16 44,16 Z"/>
  </g>
</svg>
