<?xml version="1.0" encoding="UTF-8"?>
<svg width="175px" height="36px" viewBox="0 0 175 36" version="1.1" xmlns="http://www.w3.org/2000/svg" xmlns:xlink="http://www.w3.org/1999/xlink">
    <title>logo</title>
    <defs>
        <linearGradient x1="100%" y1="50%" x2="0%" y2="50%" id="linearGradient-1">
            <stop stop-color="#0064FA" offset="0%"></stop>
            <stop stop-color="#0B8DFC" offset="100%"></stop>
        </linearGradient>
        <linearGradient x1="100%" y1="50%" x2="0%" y2="50%" id="linearGradient-2">
            <stop stop-color="#0064FA" offset="0%"></stop>
            <stop stop-color="#0B8DFC" offset="100%"></stop>
        </linearGradient>
        <linearGradient x1="100%" y1="50%" x2="0%" y2="50%" id="linearGradient-3">
            <stop stop-color="#0B8DFC" offset="0%"></stop>
            <stop stop-color="#0064FA" offset="100%"></stop>
        </linearGradient>
    </defs>
    <g id="Page-1" stroke="none" stroke-width="1" fill="none" fill-rule="evenodd">
        <g id="logo" fill-rule="nonzero">
            <g id="Logo-p">
                <path d="M0.101578625,5.20503813 C0.101578625,5.20503813 -2.32137562,30.2466737 16.4999033,36 L16.4999033,36 C31.3083682,31.4730901 32.966076,15.0056062 33,8.18934072 L33,8.18934072 L33,7.75811034 C32.9921714,6.16706534 32.8988804,5.20503813 32.8988804,5.20503813 L32.8988804,5.20503813 C32.8988804,5.20503813 24.6990657,0 16.4999033,0 L16.4999033,0 C8.30074097,0 0.101578625,5.20503813 0.101578625,5.20503813 M5.34413661,16.5011213 C5.34413661,10.1470325 10.3387886,4.99648677 16.4999033,4.99648677 L16.4999033,4.99648677 C22.6610179,4.99648677 27.6563223,10.1470325 27.6563223,16.5011213 L27.6563223,16.5011213 C27.6563223,22.8545374 22.6610179,28.005083 16.4999033,28.005083 L16.4999033,28.005083 C10.3387886,28.005083 5.34413661,22.8545374 5.34413661,16.5011213" id="Fill-1" fill="url(#linearGradient-1)"></path>
                <polygon id="Fill-4" fill="url(#linearGradient-2)" points="18.5183795 10.3946031 18.5183795 16.6040515 13.7644571 10.3946031 11.2286404 10.3946031 11.2286404 22.6069667 14.4820795 22.6069667 14.4820795 16.6040515 19.185116 22.6069667 21.7705138 22.6069667 21.7705138 10.3946031"></polygon>
            </g>
            <g id="Group-3" transform="translate(40.000000, 9.000000)" fill="url(#linearGradient-3)">
                <path d="M57.8803605,1.82969627e-17 C55.9438501,0.0187771204 54.3939864,0.500946747 53.2307697,1.44449704 L53.2307697,1.44449704 C52.1239115,2.33104537 51.5701548,3.46907298 51.5701548,4.85656805 L51.5701548,4.85656805 C51.5904701,6.14816568 52.1435714,7.18895464 53.2307697,7.97960553 L53.2307697,7.97960553 C53.7137504,8.32631164 54.2766819,8.61065089 54.9208745,8.83195267 L54.9208745,8.83195267 C55.5644121,9.05459566 56.2086049,9.25108482 56.8527975,9.42477318 L56.8527975,9.42477318 C57.4963351,9.59779093 58.1359405,9.76276135 58.7696479,9.91700198 L58.7696479,9.91700198 C59.4033554,10.0712426 59.9623547,10.2442604 60.4453354,10.4360552 L60.4453354,10.4360552 C61.5515384,10.8806706 62.1052951,11.4775148 62.1052951,12.2292702 L62.1052951,12.2292702 C62.0849798,14.0607101 60.6353823,14.9760947 57.7584684,14.9760947 L57.7584684,14.9760947 C56.6712703,14.9760947 55.7262794,14.8748324 54.9208745,14.6723077 L54.9208745,14.6723077 C54.1161251,14.469783 53.5374656,14.292071 53.1855517,14.1371598 L53.1855517,14.1371598 C52.8329822,13.9835897 52.5413589,13.9064694 52.3093708,13.9064694 L52.3093708,13.9064694 C52.0786935,13.9064694 51.8716081,14.0077318 51.6907361,14.2095858 L51.6907361,14.2095858 C51.509864,14.4127811 51.4194281,14.6293886 51.4194281,14.8600789 L51.4194281,14.8600789 C51.4194281,15.0914399 51.4895486,15.2993294 51.6304453,15.4817357 L51.6304453,15.4817357 C51.7713421,15.6648126 51.9325541,15.7955819 52.1134261,15.8720316 L52.1134261,15.8720316 C53.9450831,16.623787 55.9071514,17 57.9996311,17 L57.9996311,17 C59.9112388,17 61.4512724,16.5661144 62.6184212,15.6990138 L62.6184212,15.6990138 C63.7652548,14.851361 64.3380162,13.7522288 64.3380162,12.4036292 L64.3380162,12.4036292 C64.3190116,10.9571203 63.7652548,9.85798818 62.678712,9.10757397 L62.678712,9.10757397 C62.1754159,8.77897436 61.6170718,8.50469429 61.0030243,8.28205129 L61.0030243,8.28205129 C60.3889768,8.06142013 59.750682,7.8729783 59.086174,7.71873767 L59.086174,7.71873767 C58.4229766,7.56449704 57.7781283,7.4156213 57.1549063,7.27076923 L57.1549063,7.27076923 C56.5310288,7.12591716 55.9674421,6.94820513 55.464146,6.73629192 L55.464146,6.73629192 C54.3769479,6.2541223 53.8343318,5.57009861 53.8343318,4.68355031 L53.8343318,4.68355031 C53.8343318,3.83522682 54.2570218,3.16998027 55.1024019,2.68848127 L55.1024019,2.68848127 C55.9268114,2.22575938 56.9733789,1.99439841 58.2414491,1.99439841 L58.2414491,1.99439841 C59.6097855,1.99439841 60.8372249,2.17747535 61.9237677,2.5436292 L61.9237677,2.5436292 C62.2861671,2.65897435 62.5732031,2.71731755 62.7842206,2.71731755 L62.7842206,2.71731755 C62.9952379,2.71731755 63.1865954,2.61136095 63.3576374,2.39877712 L63.3576374,2.39877712 C63.5286794,2.18753452 63.6138727,1.96556213 63.6138727,1.73420118 L63.6138727,1.73420118 C63.5942126,1.25203156 63.3523946,0.934832347 62.8897292,0.779921105 L62.8897292,0.779921105 C61.4794517,0.273609467 59.8987874,0.0134122288 58.1451152,1.82969627e-17 L58.1451152,1.82969627e-17 L57.8803605,1.82969627e-17 Z M121.899884,0.447968443 C121.678382,0.669940829 121.56763,0.924773176 121.56763,1.21380671 L121.56763,1.21380671 L121.56763,15.814359 C121.56763,16.1033925 121.678382,16.3542012 121.899884,16.5661144 L121.899884,16.5661144 C122.121387,16.7780276 122.382865,16.8846548 122.684319,16.8846548 L122.684319,16.8846548 C123.006087,16.8846548 123.277395,16.7780276 123.499553,16.5661144 L123.499553,16.5661144 C123.720401,16.3542012 123.831807,16.1033925 123.831807,15.814359 L123.831807,15.814359 L123.831807,11.3903353 L126.638601,8.67301776 L133.007786,16.4796055 C133.25026,16.7491913 133.540573,16.8846548 133.883312,16.8846548 L133.883312,16.8846548 C134.224741,16.8846548 134.496704,16.7874162 134.698547,16.5949507 L134.698547,16.5949507 C134.899734,16.4024852 135,16.16643 135,15.8861144 L135,15.8861144 C135,15.6078107 134.909564,15.3616963 134.728692,15.149783 L134.728692,15.149783 L128.177979,7.22717948 L133.883312,1.79187377 C134.083844,1.63763314 134.185421,1.41163708 134.185421,1.11254438 L134.185421,1.11254438 C134.185421,0.814122288 134.083844,0.573372782 133.883312,0.389625247 L133.883312,0.389625247 C133.681469,0.206548323 133.416059,0.120039448 133.08315,0.128757396 L133.08315,0.128757396 C132.750896,0.140157791 132.484175,0.269585798 132.282988,0.519723866 L132.282988,0.519723866 L123.831807,8.73136095 L123.831807,1.21380671 C123.831807,0.905996055 123.715158,0.645128205 123.483825,0.43321499 L123.483825,0.43321499 C123.253148,0.220631163 122.986427,0.114674556 122.684319,0.114674556 L122.684319,0.114674556 C122.382865,0.114674556 122.121387,0.225996055 121.899884,0.447968443 L121.899884,0.447968443 Z M91.6555907,0.114674556 C90.9714226,0.114674556 90.4877866,0.442603551 90.2066485,1.09779093 L90.2066485,1.09779093 L83.9272435,15.3523077 C83.8472928,15.5447732 83.8073174,15.741933 83.8073174,15.9451282 L83.8073174,15.9451282 C83.8073174,16.1469823 83.9023408,16.3542012 84.0936981,16.5661144 L84.0936981,16.5661144 C84.2850555,16.7780276 84.596339,16.8846548 85.0295143,16.8846548 L85.0295143,16.8846548 C85.4620344,16.8846548 85.7785605,16.6633531 85.9804031,16.2187377 L85.9804031,16.2187377 L87.5499267,12.54714 L95.9716169,12.54714 L97.5719411,16.2187377 C97.7731285,16.6633531 98.0896544,16.8846548 98.5221745,16.8846548 L98.5221745,16.8846548 C98.9546947,16.8846548 99.2666334,16.7780276 99.458646,16.5661144 L99.458646,16.5661144 C99.6493481,16.3542012 99.7450268,16.1469823 99.7450268,15.9451282 L99.7450268,15.9451282 C99.7450268,15.741933 99.7037408,15.5447732 99.6244454,15.3523077 L99.6244454,15.3523077 L93.3450404,1.09779093 C93.0435871,0.442603551 92.5606063,0.114674556 91.8967534,0.114674556 L91.8967534,0.114674556 L91.6555907,0.114674556 Z M91.7761721,2.86149901 L95.1262368,10.5809073 L88.4254521,10.5809073 L91.7761721,2.86149901 Z M13.1610616,0.447968443 C12.9389035,0.669940829 12.8288075,0.924773176 12.8288075,1.21380671 L12.8288075,1.21380671 L12.8288075,13.9929783 L3.31991922,0.837593688 C2.91754448,0.356765286 2.45487908,0.114674556 1.93192299,0.114674556 L1.93192299,0.114674556 L1.63046961,0.114674556 C1.16649353,0.114674556 0.779846797,0.269585798 0.467908079,0.578067062 L0.467908079,0.578067062 C0.15596936,0.886548323 0,1.25203156 0,1.67585799 L0,1.67585799 L0,15.814359 C0,16.1033925 0.110751352,16.3542012 0.332254056,16.5661144 L0.332254056,16.5661144 C0.553756759,16.7780276 0.815234804,16.8846548 1.11734352,16.8846548 L1.11734352,16.8846548 C1.43845691,16.8846548 1.70976495,16.7780276 1.93192299,16.5661144 L1.93192299,16.5661144 C2.15277036,16.3542012 2.26417705,16.1033925 2.26417705,15.814359 L2.26417705,15.814359 L2.26417705,3.00635109 L11.8327007,16.2482446 C12.1544694,16.672071 12.5876448,16.8846548 13.1315715,16.8846548 L13.1315715,16.8846548 L13.4323696,16.8846548 C13.875375,16.8846548 14.2574344,16.7351085 14.5798585,16.4360158 L14.5798585,16.4360158 C14.9009718,16.1375937 15.0621839,15.7761341 15.0621839,15.3523077 L15.0621839,15.3523077 L15.0621839,1.21380671 C15.0621839,0.905996055 14.9520878,0.645128205 14.7299298,0.43321499 L14.7299298,0.43321499 C14.5090824,0.220631163 14.2476044,0.114674556 13.946151,0.114674556 L13.946151,0.114674556 C13.6440423,0.114674556 13.3819089,0.225996055 13.1610616,0.447968443 L13.1610616,0.447968443 Z M104.468015,0.230690336 C104.167217,0.230690336 103.905084,0.342011834 103.683581,0.563313609 L103.683581,0.563313609 C103.462078,0.784615385 103.351327,1.04011834 103.351327,1.32915187 L103.351327,1.32915187 L103.351327,15.814359 C103.351327,16.1033925 103.462078,16.3542012 103.683581,16.5661144 L103.683581,16.5661144 C103.905084,16.7780276 104.167217,16.8846548 104.468015,16.8846548 L104.468015,16.8846548 C104.789784,16.8846548 105.061747,16.7780276 105.28325,16.5661144 L105.28325,16.5661144 C105.504097,16.3542012 105.615504,16.1033925 105.615504,15.814359 L105.615504,15.814359 L105.615504,10.3213807 L110.716619,10.3213807 C111.662266,10.3213807 112.392307,10.4990927 112.904778,10.8565286 L112.904778,10.8565286 C113.417904,11.2132939 113.820934,11.6900986 114.112557,12.2876134 L114.112557,12.2876134 C114.404181,12.8851282 114.55032,13.8199606 114.55032,15.0914399 L114.55032,15.0914399 L114.55032,15.814359 C114.55032,16.142288 114.655829,16.4024852 114.866846,16.5949507 L114.866846,16.5949507 C115.078519,16.7874162 115.350482,16.8846548 115.682081,16.8846548 L115.682081,16.8846548 C116.01499,16.8846548 116.286298,16.7780276 116.497316,16.5661144 L116.497316,16.5661144 C116.708333,16.3542012 116.813842,16.1033925 116.813842,15.814359 L116.813842,15.814359 L116.813842,14.7454043 C116.833502,13.6657199 116.66377,12.6826036 116.301371,11.7953846 L116.301371,11.7953846 C115.757444,10.4273373 114.891749,9.59779093 113.70494,9.309428 L113.70494,9.309428 C114.811798,8.9627219 115.632275,8.3886785 116.165062,7.58863905 L116.165062,7.58863905 C116.697848,6.78927022 116.965224,5.93625246 116.965224,5.03025641 L116.965224,5.03025641 C116.984228,3.62331361 116.452098,2.48595661 115.364899,1.61818541 L115.364899,1.61818541 C114.197751,0.69341223 112.48733,0.230690336 110.233639,0.230690336 L110.233639,0.230690336 L104.468015,0.230690336 Z M105.615504,2.25392505 L109.962331,2.25392505 C111.672095,2.25392505 112.91985,2.52485208 113.70494,3.06469428 L113.70494,3.06469428 C114.369448,3.54619329 114.701047,4.25972387 114.701047,5.20394478 L114.701047,5.20394478 C114.701047,6.225286 114.278357,6.99179487 113.432976,7.50213018 L113.432976,7.50213018 C112.588252,8.0131361 111.471563,8.26863906 110.082912,8.26863906 L110.082912,8.26863906 L105.615504,8.26863906 L105.615504,2.25392505 Z M69.4843498,0.230690336 C69.1828962,0.230690336 68.9214183,0.342011834 68.6999155,0.563313609 L68.6999155,0.563313609 C68.4790683,0.784615385 68.3676616,1.04011834 68.3676616,1.32915187 L68.3676616,1.32915187 L68.3676616,15.814359 C68.3676616,16.1033925 68.4790683,16.3542012 68.6999155,16.5661144 L68.6999155,16.5661144 C68.9214183,16.7780276 69.1828962,16.8846548 69.4843498,16.8846548 L69.4843498,16.8846548 C69.8061185,16.8846548 70.0774265,16.7780276 70.3002399,16.5661144 L70.3002399,16.5661144 C70.5204318,16.3542012 70.6318385,16.1033925 70.6318385,15.814359 L70.6318385,15.814359 L70.6318385,10.7552663 L75.1293921,10.7552663 C77.4027437,10.7552663 79.1243046,10.1865878 80.2914535,9.04856016 L80.2914535,9.04856016 C81.2567597,8.1244576 81.7403957,6.93814597 81.7403957,5.4929783 L81.7403957,5.4929783 C81.7200804,4.02836292 81.2370996,2.84339251 80.2914535,1.93672584 L80.2914535,1.93672584 C79.1439647,0.798698225 77.4237144,0.230690336 75.1293921,0.230690336 L75.1293921,0.230690336 L69.4843498,0.230690336 Z M70.6318385,2.25392505 L74.9183746,2.25392505 C75.8233901,2.27404339 76.5776789,2.38000001 77.1825517,2.57246548 L77.1825517,2.57246548 C78.7114446,3.05463512 79.4762188,4.02836292 79.4762188,5.4929783 L79.4762188,5.4929783 C79.4958787,6.41775149 79.2042553,7.15072979 78.6006932,7.68990139 L78.6006932,7.68990139 C77.835919,8.38398422 76.6084796,8.73136095 74.9183746,8.73136095 L74.9183746,8.73136095 L70.6318385,8.73136095 L70.6318385,2.25392505 Z M35.8290453,0.230690336 C35.5269367,0.230690336 35.2746333,0.331952662 35.073446,0.534477318 L35.073446,0.534477318 C34.8729139,0.737001973 34.7719925,0.972386588 34.7719925,1.242643 L34.7719925,1.242643 C34.7719925,1.53234714 34.8775013,1.77309665 35.089174,1.96556213 L35.089174,1.96556213 C35.3001912,2.15802762 35.5465966,2.25392505 35.8290453,2.25392505 L35.8290453,2.25392505 L40.8698702,2.25392505 L40.8698702,15.814359 C40.8698702,16.1033925 40.9799662,16.3542012 41.2014689,16.5661144 L41.2014689,16.5661144 C41.4229717,16.7780276 41.6844496,16.8846548 41.9865584,16.8846548 L41.9865584,16.8846548 C42.3083271,16.8846548 42.5750478,16.7780276 42.7867205,16.5661144 L42.7867205,16.5661144 C42.9983932,16.3542012 43.103902,16.1033925 43.103902,15.814359 L43.103902,15.814359 L43.103902,2.25392505 L48.1447267,2.25392505 C48.4461801,2.25392505 48.697173,2.15333334 48.8990155,1.95080868 L48.8990155,1.95080868 C49.100203,1.74895464 49.2004689,1.51289941 49.2004689,1.242643 L49.2004689,1.242643 C49.2004689,0.972386588 49.100203,0.737001973 48.8990155,0.534477318 L48.8990155,0.534477318 C48.697173,0.331952662 48.4461801,0.230690336 48.1447267,0.230690336 L48.1447267,0.230690336 L35.8290453,0.230690336 Z M21.5663683,0.230690336 C21.264915,0.230690336 21.0034369,0.342011834 20.7819342,0.563313609 L20.7819342,0.563313609 C20.5604315,0.784615385 20.4496801,1.04011834 20.4496801,1.32915187 L20.4496801,1.32915187 L20.4496801,15.6990138 C20.4496801,15.9880473 20.5604315,16.238856 20.7819342,16.4500986 L20.7819342,16.4500986 C21.0034369,16.6633531 21.264915,16.7686391 21.5663683,16.7686391 L21.5663683,16.7686391 L31.4979466,16.7686391 C31.7790847,16.7686391 32.0261453,16.672071 32.2371628,16.4796055 L32.2371628,16.4796055 C32.4481801,16.28714 32.5543441,16.0557791 32.5543441,15.7855227 L32.5543441,15.7855227 C32.5543441,15.4958185 32.4481801,15.2510454 32.2371628,15.0478501 L32.2371628,15.0478501 C32.0261453,14.8459961 31.7790847,14.7454043 31.4979466,14.7454043 L31.4979466,14.7454043 L22.7138572,14.7454043 L22.7138572,9.51195266 L30.5922758,9.51195266 C30.8943846,9.51195266 31.1453773,9.41001973 31.3465646,9.20816568 L31.3465646,9.20816568 C31.5477519,9.00564102 31.6486734,8.77025641 31.6486734,8.4993294 L31.6486734,8.4993294 C31.6486734,8.21029587 31.5431646,7.96954635 31.3321473,7.77708087 L31.3321473,7.77708087 C31.1204746,7.58461538 30.8734138,7.48737673 30.5922758,7.48737673 L30.5922758,7.48737673 L22.7138572,7.48737673 L22.7138572,2.25392505 L31.4979466,2.25392505 C31.7790847,2.25392505 32.0261453,2.15333334 32.2371628,1.95080868 L32.2371628,1.95080868 C32.4481801,1.74895464 32.5543441,1.51289941 32.5543441,1.242643 L32.5543441,1.242643 C32.5543441,0.972386588 32.4481801,0.737001973 32.2371628,0.534477318 L32.2371628,0.534477318 C32.0261453,0.331952662 31.7790847,0.230690336 31.4979466,0.230690336 L31.4979466,0.230690336 L21.5663683,0.230690336 Z" id="Fill-1"></path>
            </g>
        </g>
    </g>
</svg>