<?xml version="1.0" encoding="UTF-8"?><!DOCTYPE svg PUBLIC "-//W3C//DTD SVG 1.1//EN" "http://www.w3.org/Graphics/SVG/1.1/DTD/svg11.dtd"><svg xmlns="http://www.w3.org/2000/svg"><symbol id="icon-arrow-next" viewBox="0 0 7.1 12.7">
    <style>
        .st0{fill:#203152}
    </style>
    <path class="st0" d="M.7 12.7l6.4-6.3L.7 0 0 .7l5.6 5.7L0 12z"/>
</symbol><symbol id="icon-arrow-prev" viewBox="0 0 7.1 12.7">
    <style>
        .st0{fill:#203152}
    </style>
    <path class="st0" d="M6.4 0L0 6.4l6.4 6.3.7-.7-5.7-5.6L7.1.7z"/>
</symbol><symbol id="icon-dribbble" viewBox="0 0 16 16">
    <path fill-rule="evenodd" d="M8 0C3.6 0 0 3.6 0 8s3.6 8 8 8 8-3.6 8-8-3.6-8-8-8zm2.2 7.4s-.2-.6-.3-.8c1.7-.8 2.8-1.7 3.2-2.2.7.9 1.1 2 1.2 3.2-.8-.2-2.6-.5-4.1-.2zM9.1 5.1C8.3 3.7 7.4 2.5 7 1.8c1.9-.5 3.6.1 4.9 1.3-.4.5-1.2 1.3-2.8 2zm-4-2.6c.4.5 1.2 1.7 2 3.2-2.2.5-4.2.6-5.1.6.4-1.6 1.6-3 3.1-3.8zM8 7.3c.1.2.2.4.3.5-2.8.9-4.6 3.2-5.2 4.1-.8-1.1-1.3-2.4-1.3-3.7.9-.1 3.5-.2 6.2-.9zm1 2.2c.7 2 1.1 3.6 1.2 4.4-2.1.7-4.5.3-5.8-.8.4-.7 1.7-2.5 4.6-3.6zm2.9 3.4c-.2-.8-.5-2.2-1.1-3.9 1.1-.2 2.7 0 3.3.2-.3 1.5-1.1 2.8-2.2 3.7z"/>
</symbol><symbol id="icon-facebook" viewBox="0 0 10 16">
    <path d="M2.932 16l-.023-7.273H0V5.818h2.91V4c0-2.7 1.67-4 4.078-4 1.154 0 2.145.086 2.434.124v2.821h-1.67c-1.31 0-1.563.623-1.563 1.536v1.337H10l-1.455 2.91H6.19V16H2.932z"/>
</symbol><symbol id="icon-instagram" viewBox="0 0 16 16">
    <g>
        <circle cx="12.145" cy="3.892" r="1"/>
        <path d="M8 12c-2.206 0-4-1.794-4-4s1.794-4 4-4 4 1.794 4 4-1.794 4-4 4zm0-6c-1.103 0-2 .897-2 2s.897 2 2 2 2-.897 2-2-.897-2-2-2z"/>
        <path d="M12 16H4c-2.056 0-4-1.944-4-4V4c0-2.056 1.944-4 4-4h8c2.056 0 4 1.944 4 4v8c0 2.056-1.944 4-4 4zM4 2c-.935 0-2 1.065-2 2v8c0 .953 1.047 2 2 2h8c.935 0 2-1.065 2-2V4c0-.935-1.065-2-2-2H4z"/>
    </g>
</symbol><symbol id="icon-linkedin" viewBox="0 0 16 16">
    <path d="M3.644 15.556H.534V5.333h3.2v10.223h-.09zM2.044 3.91c-.977 0-1.866-.8-1.866-1.867 0-.977.8-1.866 1.866-1.866.978 0 1.867.8 1.867 1.866 0 1.067-.8 1.867-1.867 1.867zm13.512 11.645h-3.2v-4.978c0-1.156 0-2.667-1.6-2.667-1.69 0-1.867 1.245-1.867 2.578v5.067h-3.2V5.333H8.71v1.423c.445-.8 1.422-1.6 3.022-1.6 3.2 0 3.823 2.133 3.823 4.888v5.512z"/>
</symbol><symbol id="icon-twitter" viewBox="0 0 16 14">
    <path d="M16 1.733c-.6.267-1.2.467-1.867.534A3.55 3.55 0 0 0 15.6.467c-.667.4-1.333.666-2.067.8A3.227 3.227 0 0 0 11.133.2a3.272 3.272 0 0 0-3.266 3.267c0 .266 0 .533.066.733a9.205 9.205 0 0 1-6.8-3.467A3.009 3.009 0 0 0 .667 2.4c0 1.133.6 2.133 1.466 2.733-.533 0-1.066-.133-1.466-.4V4.8c0 1.6 1.133 2.933 2.6 3.2-.267.067-.534.133-.867.133-.2 0-.4 0-.6-.066a3.16 3.16 0 0 0 3.067 2.266c-1.134.867-2.534 1.4-4.067 1.4-.267 0-.533 0-.8-.066a9.332 9.332 0 0 0 5 1.466c6.067 0 9.333-5 9.333-9.333v-.4C15 2.933 15.533 2.333 16 1.733z"/>
</symbol></svg>